<?xml version="1.0" encoding="utf-8"?>
<!-- Generator: Adobe Illustrator 16.0.3, SVG Export Plug-In . SVG Version: 6.00 Build 0)  -->
<!DOCTYPE svg PUBLIC "-//W3C//DTD SVG 1.1//EN" "http://www.w3.org/Graphics/SVG/1.1/DTD/svg11.dtd" [
	<!ENTITY ns_extend "http://ns.adobe.com/Extensibility/1.0/">
	<!ENTITY ns_ai "http://ns.adobe.com/AdobeIllustrator/10.0/">
	<!ENTITY ns_graphs "http://ns.adobe.com/Graphs/1.0/">
	<!ENTITY ns_vars "http://ns.adobe.com/Variables/1.0/">
	<!ENTITY ns_imrep "http://ns.adobe.com/ImageReplacement/1.0/">
	<!ENTITY ns_sfw "http://ns.adobe.com/SaveForWeb/1.0/">
	<!ENTITY ns_custom "http://ns.adobe.com/GenericCustomNamespace/1.0/">
	<!ENTITY ns_adobe_xpath "http://ns.adobe.com/XPath/1.0/">
]>
<svg version="1.1" id="Capa_1" xmlns:x="&ns_extend;" xmlns:i="&ns_ai;" xmlns:graph="&ns_graphs;"
	 xmlns="http://www.w3.org/2000/svg" xmlns:xlink="http://www.w3.org/1999/xlink" x="0px" y="0px" width="317.333px" height="196px"
	 viewBox="0 0 317.333 196" enable-background="new 0 0 317.333 196" xml:space="preserve">
<metadata>
	<sfw  xmlns="&ns_sfw;">
		<slices></slices>
		<sliceSourceBounds  x="131.5" y="-377.453" width="294" height="174.906" bottomLeftOrigin="true"></sliceSourceBounds>
	</sfw>
</metadata>
<path fill="#333333" stroke="#000000" stroke-miterlimit="10" d="M303.333,174.495c0,7.249-5.373,13.125-12,13.125h-269
	c-6.627,0-12-5.876-12-13.125V26.838c0-7.249,5.373-13.125,12-13.125h269c6.627,0,12,5.876,12,13.125V174.495z"/>
<rect x="22.885" y="21.885" fill="#4D4D4D" stroke="#000000" stroke-miterlimit="10" width="268.453" height="156.23"/>
<rect x="40.833" y="15.5" fill="#FFFFFF" width="11.833" height="2.833"/>
<rect x="14.833" y="32.5" fill="#FFFFFF" width="2.833" height="11.833"/>
<rect x="14.833" y="158" fill="#FFFFFF" width="2.833" height="11.833"/>
<rect x="258.916" y="15.5" fill="#FFFFFF" width="11.833" height="2.833"/>
<rect x="40.833" y="183" fill="#FFFFFF" width="11.833" height="2.833"/>
<rect x="258.916" y="183" fill="#FFFFFF" width="11.833" height="2.833"/>
</svg>
