<?xml version="1.0" encoding="UTF-8" standalone="no"?>
<svg
   xmlns:dc="http://purl.org/dc/elements/1.1/"
   xmlns:cc="http://creativecommons.org/ns#"
   xmlns:rdf="http://www.w3.org/1999/02/22-rdf-syntax-ns#"
   xmlns:svg="http://www.w3.org/2000/svg"
   xmlns="http://www.w3.org/2000/svg"
   xmlns:xlink="http://www.w3.org/1999/xlink"
   id="svg157"
   version="1.1"
   height="2109.6233"
   width="794.70081"
   viewBox="0 0 794.70076 2109.6234">
  <metadata
     id="metadata161">
    <rdf:RDF>
      <cc:Work
         rdf:about="">
        <dc:format>image/svg+xml</dc:format>
        <dc:type
           rdf:resource="http://purl.org/dc/dcmitype/StillImage" />
        <dc:title></dc:title>
      </cc:Work>
    </rdf:RDF>
  </metadata>
  <defs
     id="defs27">
    <marker
       style="overflow:visible"
       refY="0"
       refX="0"
       orient="auto"
       id="DistanceX">
      <path
         id="path10"
         style="stroke:rgb(50,50,50);stroke-width:0.5"
         d="M 3,-3 -3,3 M 0,-5 V 5" />
    </marker>
    <pattern
       y="0"
       x="0"
       height="8"
       width="8"
       patternUnits="userSpaceOnUse"
       id="Hatch">
      <path
         id="path13"
         linecap="square"
         stroke-width="1px"
         stroke="rgba(50, 50, 50, 1);stroke-width:4"
         d="M8 4 l-4,4" />
      <path
         id="path15"
         linecap="square"
         stroke-width="1px"
         stroke="rgba(50, 50, 50, 1);stroke-width:4"
         d="M6 2 l-4,4" />
      <path
         id="path17"
         linecap="square"
         stroke-width="1px"
         stroke="rgba(50, 50, 50, 1);stroke-width:4"
         d="M4 0 l-4,4" />
    </pattern>
    <symbol
       id="*Model_Space" />
    <symbol
       id="*Paper_Space" />
    <symbol
       id="*Paper_Space0" />
    <symbol
       id="*U1" />
    <symbol
       id="*U2" />
    <symbol
       id="*U3" />
    <symbol
       id="*U4" />
  </defs>
  <g
     transform="translate(0.5,986.6035)"
     id="g149">
    <use
       height="100%"
       width="100%"
       y="0"
       x="0"
       id="use35"
       xlink:href="#*U1" />
    <use
       height="100%"
       width="100%"
       y="0"
       x="0"
       id="use37"
       transform="translate(0,-198.4252)"
       xlink:href="#*U1" />
    <use
       height="100%"
       width="100%"
       y="0"
       x="0"
       id="use39"
       transform="translate(0,-396.85039)"
       xlink:href="#*U1" />
    <use
       height="100%"
       width="100%"
       y="0"
       x="0"
       id="use41"
       transform="translate(0,-595.27559)"
       xlink:href="#*U1" />
    <use
       height="100%"
       width="100%"
       y="0"
       x="0"
       id="use43"
       transform="translate(0,-793.70079)"
       xlink:href="#*U1" />
    <use
       height="100%"
       width="100%"
       y="0"
       x="0"
       id="use45"
       transform="translate(0,-992.12598)"
       xlink:href="#*U1" />
    <use
       height="100%"
       width="100%"
       y="0"
       x="0"
       id="use47"
       transform="translate(0,-1190.5512)"
       xlink:href="#*U1" />
    <use
       height="100%"
       width="100%"
       y="0"
       x="0"
       id="use49"
       transform="translate(0,-1388.9764)"
       xlink:href="#*U1" />
    <use
       height="100%"
       width="100%"
       y="0"
       x="0"
       id="use51"
       transform="translate(0,-1587.4016)"
       xlink:href="#*U1" />
    <use
       height="100%"
       width="100%"
       y="0"
       x="0"
       id="use59"
       xlink:href="#*U3" />
    <use
       height="100%"
       width="100%"
       y="0"
       x="0"
       id="use61"
       transform="translate(0,-198.4252)"
       xlink:href="#*U3" />
    <use
       height="100%"
       width="100%"
       y="0"
       x="0"
       id="use63"
       transform="translate(0,-396.85039)"
       xlink:href="#*U3" />
    <use
       height="100%"
       width="100%"
       y="0"
       x="0"
       id="use65"
       transform="translate(0,-595.27559)"
       xlink:href="#*U3" />
    <use
       height="100%"
       width="100%"
       y="0"
       x="0"
       id="use67"
       transform="translate(0,-793.70079)"
       xlink:href="#*U3" />
    <use
       height="100%"
       width="100%"
       y="0"
       x="0"
       id="use69"
       transform="translate(0,-992.12598)"
       xlink:href="#*U3" />
    <use
       height="100%"
       width="100%"
       y="0"
       x="0"
       id="use71"
       transform="translate(0,-1190.5512)"
       xlink:href="#*U3" />
    <use
       height="100%"
       width="100%"
       y="0"
       x="0"
       id="use73"
       transform="translate(0,-1388.9764)"
       xlink:href="#*U3" />
    <use
       height="100%"
       width="100%"
       y="0"
       x="0"
       id="use75"
       transform="translate(0,-1587.4016)"
       xlink:href="#*U3" />











    <path
       id="base"
       style="fill:gray;stroke:rgba(50, 50, 50, 1);stroke-width:4"
       d="m 793.70079,1046.2023 h -27.52921 a 30.526953,30.526953 0 0 1 -23.24887,-10.7435 46.218936,46.218936 0 0 0 -68.25883,-2.0778 l -1.43004,1.6998 a 30.526953,30.526953 0 0 1 -23.56532,11.1215 h -167.3469 a 24.421563,24.421563 0 0 1 -16.05241,-6.0169 l -38.60186,-33.6681 h -10.15 l -19.14856,-10e-5 v 0 l -10.38648,10e-5 a 12.210781,12.210781 0 0 1 -9.76862,-4.8843 l -10.9897,-14.65299 a 12.210781,12.210781 0 0 0 -9.76863,-4.88431 h -79.37008 l -38.77195,53.9391 a 24.421563,24.421563 0 0 1 -19.83013,10.1675 h -84.90366 a 30.526953,30.526953 0 0 1 -23.14024,-10.6165 46.400969,46.400969 0 0 0 -70.346325,0 30.526953,30.526953 0 0 1 -23.140239,10.6165 H 0 v 76.3174 h 793.70079 z" />
    <path
       id="ruedaizquierda"
       style="fill:lightgray;stroke:rgba(50, 50, 50, 1);stroke-width:4"
       d="m 249.77072,-948.39967 a 22.895215,22.895215 0 1 0 -34.92124,0" />
    <path
       id="ruedaderecha"
       style="fill:lightgray;stroke:rgba(50, 50, 50, 1);stroke-width:4"
       d="m 545.88216,-948.39967 a 22.895215,22.895215 0 1 0 -34.92123,0" />
    <path
       id="techo"
       style="fill:lightgray;stroke:rgba(50, 50, 50, 1);stroke-width:4"
       d="m 560.47485,-905.20784 v -15.26348 H 200.2568 v 15.26348 l 56.16959,45.79043 h 48.97642 a 12.210781,12.210781 0 0 0 9.63861,-4.71409 l 14.03584,-18.04608 a 12.210781,12.210781 0 0 1 9.63861,-4.71409 h 194.94457 a 12.210781,12.210781 0 0 0 7.71551,-2.74642 z" />
    <path
       id="ejeizquierdo"
       style="fill:gray;stroke:rgba(50, 50, 50, 1);stroke-width:4"
       d="m 251.72643,-943.58968 -9.53271,-23.44531 a 6.105391,6.105391 0 0 0 -5.65577,-3.8058 h -8.45571 a 6.105391,6.105391 0 0 0 -5.65576,3.8058 l -9.53271,23.44531 a 21.368867,21.368867 0 0 1 -5.8885,8.17587 l -5.68244,4.87067 a 3.052695,3.052695 0 0 0 -1.06603,2.31778 v 7.75404 h 64.1066 v -7.75404 a 3.052695,3.052695 0 0 0 -1.06603,-2.31778 l -5.68245,-4.87067 a 21.368867,21.368867 0 0 1 -5.88849,-8.17587 z" />
    <path
       id="ejederecho"
       style="fill:gray;stroke:rgba(50, 50, 50, 1);stroke-width:4"
       d="m 553.72637,-935.41381 a 21.368867,21.368867 0 0 1 -5.88849,-8.17587 l -9.53272,-23.44531 a 6.105391,6.105391 0 0 0 -5.65576,-3.8058 h -8.45571 a 6.105391,6.105391 0 0 0 -5.65576,3.8058 l -9.53271,23.44531 a 21.368867,21.368867 0 0 1 -5.8885,8.17587 l -5.68245,4.87067 a 3.052695,3.052695 0 0 0 -1.06602,2.31778 v 7.75404 h 64.1066 v -7.75404 a 3.052695,3.052695 0 0 0 -1.06603,-2.31778 z" />
    


    
    <path
       id="columnader1"
       style="fill:gray;stroke:rgba(50, 50, 50, 1);stroke-width:4"
       d="m 398.37695,-886.89167 h 25.33737 V 1006.5172 h -25.33737 z" />
    <path
       id="columnader2"
       style="fill:gray;stroke:rgba(50, 50, 50, 1);stroke-width:4"
       d="m 446.38647,1022.8439 -18.71912,-16.3266 h -3.95303 V -886.89167 h 23.48723 l -0.81508,1909.73557" />
    <path
       id="columnaizq"
       style="fill:gray;stroke:rgba(50, 50, 50, 1);stroke-width:4"
       d="m 278.08531,982.0957 h 28.71067 V -859.41741 h -28.71067 z" />
  



    
    <path
       id="path89"
       class="cruz"
       style="fill:lightgray;stroke:rgba(50, 50, 50, 1);stroke-width:4"
       d="m 371.07939,874.88445 a 7.631738,7.631738 0 0 0 1.91084,-3.98906 l 0.13417,-0.87165 a 7.631738,7.631738 0 0 1 1.91084,-3.98906 l 12.33159,-13.48569 a 7.631738,7.631738 0 0 1 3.80266,-2.25915 l 0.8562,-0.21141 a 7.631738,7.631738 0 0 0 3.80265,-2.25915 l 2.38855,-2.61209 0.16006,-0.17504 v -22.61848 l -1.06119,1.16051 -12.75155,13.94495 a 7.631738,7.631738 0 0 0 -1.91084,3.98906 l -0.13417,0.87165 a 7.631738,7.631738 0 0 1 -1.91084,3.98906 l -12.33159,13.48569 a 7.631738,7.631738 0 0 1 -3.80266,2.25916 l -0.8562,0.2114 a 7.631738,7.631738 0 0 0 -3.80265,2.25915 l -25.72179,28.12906 a 7.631738,7.631738 0 0 0 -1.91084,3.98906 l -0.13417,0.87166 a 7.631738,7.631738 0 0 1 -1.91084,3.98906 l -12.33159,13.48569 a 7.631738,7.631738 0 0 1 -3.80265,2.25915 l -0.85621,0.21141 a 7.631738,7.631738 0 0 0 -3.80265,2.25915 l -2.38854,2.61209 -0.16002,0.17499 v 22.61848 l 1.06115,-1.16046 12.75154,-13.94495 a 7.631738,7.631738 0 0 0 1.91085,-3.98906 l 0.13416,-0.87165 a 7.631738,7.631738 0 0 1 1.91085,-3.98906 l 12.33159,-13.48569 a 7.631738,7.631738 0 0 1 3.80265,-2.25916 l 0.8562,-0.2114 a 7.631738,7.631738 0 0 0 3.80265,-2.25916 z" />
    <path
       id="path91"
       class="cruz"
       style="fill:lightgray;stroke:rgba(50, 50, 50, 1);stroke-width:4"
       d="m 352.58644,872.48966 -0.20684,-0.2262 -7.022,-7.67918 a 7.631738,7.631738 0 0 0 -3.80265,-2.25916 l -0.8562,-0.2114 a 7.631738,7.631738 0 0 1 -3.80265,-2.25916 l -12.33159,-13.48569 a 7.631738,7.631738 0 0 1 -1.91085,-3.98906 l -0.13416,-0.87165 a 7.631738,7.631738 0 0 0 -1.91085,-3.98906 l -12.75154,-13.94495 -1.06114,-1.16045 v 22.61848 l 0.16001,0.17498 2.38854,2.61209 a 7.631738,7.631738 0 0 0 3.80265,2.25915 l 0.85621,0.21141 a 7.631738,7.631738 0 0 1 3.80265,2.25915 l 12.33159,13.4857 a 7.631738,7.631738 0 0 1 1.91084,3.98906 l 0.13417,0.87165 a 7.631738,7.631738 0 0 0 1.91084,3.98906 l 7.94473,8.68827 0.20684,0.2262 z" />
    <path
       id="path93"
       class="cruz"
       style="fill:lightgray;stroke:rgba(50, 50, 50, 1);stroke-width:4"
       d="m 371.07939,892.71334 -7.94473,-8.68827 -0.20682,-0.22617 -10.3414,11.30923 7.22882,7.90536 a 7.631738,7.631738 0 0 0 3.80265,2.25915 l 0.8562,0.21141 a 7.631738,7.631738 0 0 1 3.80266,2.25915 l 12.33159,13.48569 a 7.631738,7.631738 0 0 1 1.91084,3.98906 l 0.13417,0.87165 a 7.631738,7.631738 0 0 0 1.91084,3.98906 l 12.75155,13.94495 1.06119,1.16051 v -22.61847 l -0.16006,-0.17505 -2.38855,-2.61209 a 7.631738,7.631738 0 0 0 -3.80265,-2.25915 l -0.8562,-0.21141 a 7.631738,7.631738 0 0 1 -3.80266,-2.25915 l -12.33159,-13.48569 a 7.631738,7.631738 0 0 1 -1.91084,-3.98906 l -0.13417,-0.87165 a 7.631738,7.631738 0 0 0 -1.91084,-3.98906 z" />
    <path
       id="path95"
       class="cruz"
       style="fill:lightgray;stroke:rgba(50, 50, 50, 1);stroke-width:4"
       d="m 371.07939,676.45926 a 7.631738,7.631738 0 0 0 1.91084,-3.98906 l 0.13417,-0.87165 a 7.631738,7.631738 0 0 1 1.91084,-3.98907 l 12.33159,-13.48569 a 7.631738,7.631738 0 0 1 3.80266,-2.25915 l 0.8562,-0.21141 a 7.631738,7.631738 0 0 0 3.80265,-2.25915 l 2.38855,-2.61209 0.16006,-0.17504 v -22.61848 l -1.06119,1.16051 -12.75155,13.94495 a 7.631738,7.631738 0 0 0 -1.91084,3.98906 l -0.13417,0.87165 a 7.631738,7.631738 0 0 1 -1.91084,3.98906 l -12.33159,13.48569 a 7.631738,7.631738 0 0 1 -3.80266,2.25916 l -0.8562,0.2114 a 7.631738,7.631738 0 0 0 -3.80265,2.25916 l -25.72179,28.12906 a 7.631738,7.631738 0 0 0 -1.91084,3.98906 l -0.13417,0.87165 a 7.631738,7.631738 0 0 1 -1.91084,3.98906 l -12.33159,13.48569 a 7.631738,7.631738 0 0 1 -3.80265,2.25915 l -0.85621,0.21141 a 7.631738,7.631738 0 0 0 -3.80265,2.25915 l -2.38854,2.61209 -0.16002,0.175 v 22.61848 l 1.06115,-1.16047 12.75154,-13.94494 a 7.631738,7.631738 0 0 0 1.91085,-3.98907 l 0.13416,-0.87165 a 7.631738,7.631738 0 0 1 1.91085,-3.98906 l 12.33159,-13.48569 a 7.631738,7.631738 0 0 1 3.80265,-2.25915 l 0.8562,-0.21141 a 7.631738,7.631738 0 0 0 3.80265,-2.25915 z" />
    <path
       id="path97"
       class="cruz"
       style="fill:lightgray;stroke:rgba(50, 50, 50, 1);stroke-width:4"
       d="m 352.58644,674.06446 -0.20684,-0.2262 -7.022,-7.67918 a 7.631738,7.631738 0 0 0 -3.80265,-2.25915 l -0.8562,-0.21141 a 7.631738,7.631738 0 0 1 -3.80265,-2.25915 l -12.33159,-13.48569 a 7.631738,7.631738 0 0 1 -1.91085,-3.98906 l -0.13416,-0.87166 a 7.631738,7.631738 0 0 0 -1.91085,-3.98906 l -12.75154,-13.94495 -1.06114,-1.16044 v 22.61847 l 0.16001,0.17499 2.38854,2.61208 a 7.631738,7.631738 0 0 0 3.80265,2.25916 l 0.85621,0.2114 a 7.631738,7.631738 0 0 1 3.80265,2.25916 l 12.33159,13.48569 a 7.631738,7.631738 0 0 1 1.91084,3.98906 l 0.13417,0.87165 a 7.631738,7.631738 0 0 0 1.91084,3.98906 l 7.94473,8.68827 0.20684,0.2262 z" />
    <path
       id="path99"
       class="cruz"
       style="fill:lightgray;stroke:rgba(50, 50, 50, 1);stroke-width:4"
       d="m 371.07939,694.28814 -7.94473,-8.68827 -0.20682,-0.22617 -10.3414,11.30924 7.22882,7.90535 a 7.631738,7.631738 0 0 0 3.80265,2.25915 l 0.8562,0.21141 a 7.631738,7.631738 0 0 1 3.80266,2.25915 l 12.33159,13.48569 a 7.631738,7.631738 0 0 1 1.91084,3.98907 l 0.13417,0.87165 a 7.631738,7.631738 0 0 0 1.91084,3.98906 l 12.75155,13.94495 1.06119,1.16051 v -22.61848 l -0.16006,-0.17504 -2.38855,-2.61209 a 7.631738,7.631738 0 0 0 -3.80265,-2.25916 l -0.8562,-0.2114 a 7.631738,7.631738 0 0 1 -3.80266,-2.25916 l -12.33159,-13.48569 a 7.631738,7.631738 0 0 1 -1.91084,-3.98906 l -0.13417,-0.87165 a 7.631738,7.631738 0 0 0 -1.91084,-3.98906 z" />
    <path
       id="path101"
       class="cruz"
       style="fill:lightgray;stroke:rgba(50, 50, 50, 1);stroke-width:4"
       d="m 371.07939,478.03406 a 7.631738,7.631738 0 0 0 1.91084,-3.98906 l 0.13417,-0.87165 a 7.631738,7.631738 0 0 1 1.91084,-3.98906 l 12.33159,-13.48569 a 7.631738,7.631738 0 0 1 3.80266,-2.25916 l 0.8562,-0.2114 a 7.631738,7.631738 0 0 0 3.80265,-2.25916 l 2.38855,-2.61208 0.16006,-0.17505 v -22.61847 l -1.06119,1.16051 -12.75155,13.94494 a 7.631738,7.631738 0 0 0 -1.91084,3.98907 l -0.13417,0.87165 a 7.631738,7.631738 0 0 1 -1.91084,3.98906 l -12.33159,13.48569 a 7.631738,7.631738 0 0 1 -3.80266,2.25915 l -0.8562,0.21141 a 7.631738,7.631738 0 0 0 -3.80265,2.25915 l -25.72179,28.12906 a 7.631738,7.631738 0 0 0 -1.91084,3.98906 l -0.13417,0.87165 a 7.631738,7.631738 0 0 1 -1.91084,3.98906 l -12.33159,13.48569 a 7.631738,7.631738 0 0 1 -3.80265,2.25916 l -0.85621,0.2114 a 7.631738,7.631738 0 0 0 -3.80265,2.25916 l -2.38854,2.61209 -0.16002,0.17499 v 22.61848 l 1.06115,-1.16046 12.75154,-13.94495 a 7.631738,7.631738 0 0 0 1.91085,-3.98906 l 0.13416,-0.87165 a 7.631738,7.631738 0 0 1 1.91085,-3.98907 l 12.33159,-13.48569 a 7.631738,7.631738 0 0 1 3.80265,-2.25915 l 0.8562,-0.2114 a 7.631738,7.631738 0 0 0 3.80265,-2.25916 z" />
    <path
       id="path103"
       class="cruz"
       style="fill:lightgray;stroke:rgba(50, 50, 50, 1);stroke-width:4"
       d="m 352.58644,475.63926 -0.20684,-0.22619 -7.022,-7.67919 a 7.631738,7.631738 0 0 0 -3.80265,-2.25915 l -0.8562,-0.21141 a 7.631738,7.631738 0 0 1 -3.80265,-2.25915 l -12.33159,-13.48569 a 7.631738,7.631738 0 0 1 -1.91085,-3.98906 l -0.13416,-0.87165 a 7.631738,7.631738 0 0 0 -1.91085,-3.98906 l -12.75154,-13.94495 -1.06114,-1.16045 v 22.61847 l 0.16001,0.17499 2.38854,2.61209 a 7.631738,7.631738 0 0 0 3.80265,2.25915 l 0.85621,0.21141 a 7.631738,7.631738 0 0 1 3.80265,2.25915 l 12.33159,13.48569 a 7.631738,7.631738 0 0 1 1.91084,3.98906 l 0.13417,0.87165 a 7.631738,7.631738 0 0 0 1.91084,3.98907 l 7.94473,8.68826 0.20684,0.2262 z" />
    <path
       id="path105"
       class="cruz"
       style="fill:lightgray;stroke:rgba(50, 50, 50, 1);stroke-width:4"
       d="m 371.07939,495.86294 -7.94473,-8.68827 -0.20682,-0.22617 -10.3414,11.30924 7.22882,7.90535 a 7.631738,7.631738 0 0 0 3.80265,2.25916 l 0.8562,0.2114 a 7.631738,7.631738 0 0 1 3.80266,2.25916 l 12.33159,13.48569 a 7.631738,7.631738 0 0 1 1.91084,3.98906 l 0.13417,0.87165 a 7.631738,7.631738 0 0 0 1.91084,3.98906 l 12.75155,13.94495 1.06119,1.16051 v -22.61848 l -0.16006,-0.17504 -2.38855,-2.61209 a 7.631738,7.631738 0 0 0 -3.80265,-2.25915 l -0.8562,-0.21141 a 7.631738,7.631738 0 0 1 -3.80266,-2.25915 l -12.33159,-13.48569 a 7.631738,7.631738 0 0 1 -1.91084,-3.98906 l -0.13417,-0.87165 a 7.631738,7.631738 0 0 0 -1.91084,-3.98907 z" />
    <path
       id="path107"
       class="cruz"
       style="fill:lightgray;stroke:rgba(50, 50, 50, 1);stroke-width:4"
       d="m 371.07939,279.60886 a 7.631738,7.631738 0 0 0 1.91084,-3.98906 l 0.13417,-0.87165 a 7.631738,7.631738 0 0 1 1.91084,-3.98906 l 12.33159,-13.48569 a 7.631738,7.631738 0 0 1 3.80266,-2.25915 l 0.8562,-0.21141 a 7.631738,7.631738 0 0 0 3.80265,-2.25915 l 2.38855,-2.61209 0.16006,-0.17504 v -22.61848 l -1.06119,1.16051 -12.75155,13.94495 a 7.631738,7.631738 0 0 0 -1.91084,3.98906 l -0.13417,0.87165 a 7.631738,7.631738 0 0 1 -1.91084,3.98906 L 368.27677,264.579 a 7.631738,7.631738 0 0 1 -3.80266,2.25915 l -0.8562,0.21141 a 7.631738,7.631738 0 0 0 -3.80265,2.25915 l -25.72179,28.12906 a 7.631738,7.631738 0 0 0 -1.91084,3.98906 l -0.13417,0.87166 a 7.631738,7.631738 0 0 1 -1.91084,3.98906 l -12.33159,13.48569 a 7.631738,7.631738 0 0 1 -3.80265,2.25915 l -0.85621,0.21141 a 7.631738,7.631738 0 0 0 -3.80265,2.25915 l -2.38854,2.61209 -0.16002,0.17499 v 22.61848 l 1.06115,-1.16046 12.75154,-13.94495 a 7.631738,7.631738 0 0 0 1.91085,-3.98906 l 0.13416,-0.87165 a 7.631738,7.631738 0 0 1 1.91085,-3.98906 l 12.33159,-13.48569 a 7.631738,7.631738 0 0 1 3.80265,-2.25916 l 0.8562,-0.2114 a 7.631738,7.631738 0 0 0 3.80265,-2.25916 z" />
    <path
       id="path109"
       class="cruz"
       style="fill:lightgray;stroke:rgba(50, 50, 50, 1);stroke-width:4"
       d="m 352.58644,277.21407 -0.20684,-0.2262 -7.022,-7.67918 a 7.631738,7.631738 0 0 0 -3.80265,-2.25916 l -0.8562,-0.2114 a 7.631738,7.631738 0 0 1 -3.80265,-2.25916 l -12.33159,-13.48569 a 7.631738,7.631738 0 0 1 -1.91085,-3.98906 l -0.13416,-0.87165 a 7.631738,7.631738 0 0 0 -1.91085,-3.98906 l -12.75154,-13.94495 -1.06114,-1.16045 v 22.61848 l 0.16001,0.17498 2.38854,2.61209 a 7.631738,7.631738 0 0 0 3.80265,2.25915 l 0.85621,0.21141 a 7.631738,7.631738 0 0 1 3.80265,2.25915 l 12.33159,13.4857 a 7.631738,7.631738 0 0 1 1.91084,3.98906 l 0.13417,0.87165 a 7.631738,7.631738 0 0 0 1.91084,3.98906 l 7.94473,8.68827 0.20684,0.2262 z" />
    <path
       id="path111"
       class="cruz"
       style="fill:lightgray;stroke:rgba(50, 50, 50, 1);stroke-width:4"
       d="m 371.07939,297.43775 -7.94473,-8.68827 -0.20682,-0.22617 -10.3414,11.30923 7.22882,7.90536 a 7.631738,7.631738 0 0 0 3.80265,2.25915 l 0.8562,0.21141 a 7.631738,7.631738 0 0 1 3.80266,2.25915 l 12.33159,13.48569 a 7.631738,7.631738 0 0 1 1.91084,3.98906 l 0.13417,0.87165 a 7.631738,7.631738 0 0 0 1.91084,3.98906 l 12.75155,13.94495 1.06119,1.16051 v -22.61848 l -0.16006,-0.17504 -2.38855,-2.61209 a 7.631738,7.631738 0 0 0 -3.80265,-2.25915 l -0.8562,-0.2114 a 7.631738,7.631738 0 0 1 -3.80266,-2.25916 l -12.33159,-13.48569 a 7.631738,7.631738 0 0 1 -1.91084,-3.98906 l -0.13417,-0.87165 a 7.631738,7.631738 0 0 0 -1.91084,-3.98906 z" />
    <path
       id="path113"
       class="cruz"
       style="fill:lightgray;stroke:rgba(50, 50, 50, 1);stroke-width:4"
       d="m 371.07939,81.183668 a 7.631738,7.631738 0 0 0 1.91084,-3.989061 l 0.13417,-0.871651 a 7.631738,7.631738 0 0 1 1.91084,-3.989061 l 12.33159,-13.485691 a 7.631738,7.631738 0 0 1 3.80266,-2.259154 l 0.8562,-0.211405 a 7.631738,7.631738 0 0 0 3.80265,-2.259154 l 2.38855,-2.612089 0.16006,-0.175042 V 28.712883 l -1.06119,1.160508 -12.75155,13.94495 a 7.631738,7.631738 0 0 0 -1.91084,3.989061 l -0.13417,0.871651 a 7.631738,7.631738 0 0 1 -1.91084,3.989061 l -12.33159,13.48569 a 7.631738,7.631738 0 0 1 -3.80266,2.259154 l -0.8562,0.211405 a 7.631738,7.631738 0 0 0 -3.80265,2.259154 l -25.72179,28.12906 a 7.631738,7.631738 0 0 0 -1.91084,3.989063 l -0.13417,0.87165 a 7.631738,7.631738 0 0 1 -1.91084,3.98906 l -12.33159,13.48569 a 7.631738,7.631738 0 0 1 -3.80265,2.25916 l -0.85621,0.2114 a 7.631738,7.631738 0 0 0 -3.80265,2.25915 l -2.38854,2.61209 -0.16002,0.17499 v 22.61848 l 1.06115,-1.16046 12.75154,-13.94495 a 7.631738,7.631738 0 0 0 1.91085,-3.98906 l 0.13416,-0.87165 a 7.631738,7.631738 0 0 1 1.91085,-3.98906 l 12.33159,-13.48569 a 7.631738,7.631738 0 0 1 3.80265,-2.25915 l 0.8562,-0.21141 a 7.631738,7.631738 0 0 0 3.80265,-2.25915 z" />
    <path
       id="path115"
       class="cruz"
       style="fill:lightgray;stroke:rgba(50, 50, 50, 1);stroke-width:4"
       d="m 352.58644,78.78887 -0.20684,-0.226198 -7.022,-7.679182 a 7.631738,7.631738 0 0 0 -3.80265,-2.259153 l -0.8562,-0.211406 A 7.631738,7.631738 0 0 1 336.8961,66.153778 L 324.56451,52.668087 a 7.631738,7.631738 0 0 1 -1.91085,-3.989061 l -0.13416,-0.871651 a 7.631738,7.631738 0 0 0 -1.91085,-3.989061 l -12.75154,-13.94495 -1.06114,-1.160448 v 22.618475 l 0.16001,0.174984 2.38854,2.612089 a 7.631738,7.631738 0 0 0 3.80265,2.259154 l 0.85621,0.211405 a 7.631738,7.631738 0 0 1 3.80265,2.259154 l 12.33159,13.485691 a 7.631738,7.631738 0 0 1 1.91084,3.989061 l 0.13417,0.871651 a 7.631738,7.631738 0 0 0 1.91084,3.989061 l 7.94473,8.68827 0.20684,0.226198 z" />
    <path
       id="path117"
       class="cruz"
       style="fill:lightgray;stroke:rgba(50, 50, 50, 1);stroke-width:4"
       d="m 371.07939,99.01255 -7.94473,-8.68827 -0.20682,-0.226171 -10.3414,11.309241 7.22882,7.90535 a 7.631738,7.631738 0 0 0 3.80265,2.25915 l 0.8562,0.21141 a 7.631738,7.631738 0 0 1 3.80266,2.25915 l 12.33159,13.48569 a 7.631738,7.631738 0 0 1 1.91084,3.98906 l 0.13417,0.87166 a 7.631738,7.631738 0 0 0 1.91084,3.98906 l 12.75155,13.94495 1.06119,1.1605 v -22.61847 l -0.16006,-0.17504 -2.38855,-2.61209 a 7.631738,7.631738 0 0 0 -3.80265,-2.25916 l -0.8562,-0.2114 a 7.631738,7.631738 0 0 1 -3.80266,-2.25916 l -12.33159,-13.48569 a 7.631738,7.631738 0 0 1 -1.91084,-3.98906 l -0.13417,-0.87165 a 7.631738,7.631738 0 0 0 -1.91084,-3.98906 z" />
    <path
       id="path119"
       class="cruz"
       style="fill:lightgray;stroke:rgba(50, 50, 50, 1);stroke-width:4"
       d="m 371.07939,-117.24153 a 7.631738,7.631738 0 0 0 1.91084,-3.98906 l 0.13417,-0.87165 a 7.631738,7.631738 0 0 1 1.91084,-3.98906 l 12.33159,-13.48569 a 7.631738,7.631738 0 0 1 3.80266,-2.25916 l 0.8562,-0.2114 a 7.631738,7.631738 0 0 0 3.80265,-2.25916 l 2.38855,-2.61208 0.16006,-0.17505 v -22.61847 l -1.06119,1.1605 -12.75155,13.94495 a 7.631738,7.631738 0 0 0 -1.91084,3.98907 l -0.13417,0.87165 a 7.631738,7.631738 0 0 1 -1.91084,3.98906 l -12.33159,13.48569 a 7.631738,7.631738 0 0 1 -3.80266,2.25915 l -0.8562,0.21141 a 7.631738,7.631738 0 0 0 -3.80265,2.25915 l -25.72179,28.12906 a 7.631738,7.631738 0 0 0 -1.91084,3.989061 l -0.13417,0.871651 a 7.631738,7.631738 0 0 1 -1.91084,3.989061 l -12.33159,13.485691 a 7.631738,7.631738 0 0 1 -3.80265,2.259154 l -0.85621,0.211405 a 7.631738,7.631738 0 0 0 -3.80265,2.259154 l -2.38854,2.612089 -0.16002,0.174993 v 22.61848 l 1.06115,-1.160462 12.75154,-13.94495 a 7.631738,7.631738 0 0 0 1.91085,-3.989061 l 0.13416,-0.871651 a 7.631738,7.631738 0 0 1 1.91085,-3.989061 l 12.33159,-13.485691 a 7.631738,7.631738 0 0 1 3.80265,-2.259153 l 0.8562,-0.211406 a 7.631738,7.631738 0 0 0 3.80265,-2.259154 z" />
    <path
       id="path121"
       class="cruz"
       style="fill:lightgray;stroke:rgba(50, 50, 50, 1);stroke-width:4"
       d="m 352.58644,-119.63633 -0.20684,-0.2262 -7.022,-7.67918 a 7.631738,7.631738 0 0 0 -3.80265,-2.25915 l -0.8562,-0.21141 a 7.631738,7.631738 0 0 1 -3.80265,-2.25915 l -12.33159,-13.48569 a 7.631738,7.631738 0 0 1 -1.91085,-3.98906 l -0.13416,-0.87165 a 7.631738,7.631738 0 0 0 -1.91085,-3.98906 l -12.75154,-13.94495 -1.06114,-1.16045 v 22.61847 l 0.16001,0.17499 2.38854,2.61209 a 7.631738,7.631738 0 0 0 3.80265,2.25915 l 0.85621,0.21141 a 7.631738,7.631738 0 0 1 3.80265,2.25915 l 12.33159,13.48569 a 7.631738,7.631738 0 0 1 1.91084,3.98906 l 0.13417,0.87165 a 7.631738,7.631738 0 0 0 1.91084,3.98906 l 7.94473,8.68827 0.20684,0.2262 z" />
    <path
       id="path123"
       class="cruz"
       style="fill:lightgray;stroke:rgba(50, 50, 50, 1);stroke-width:4"
       d="m 371.07939,-99.412647 -7.94473,-8.688273 -0.20682,-0.22617 -10.3414,11.309241 7.22882,7.905353 a 7.631738,7.631738 0 0 0 3.80265,2.259153 l 0.8562,0.211406 a 7.631738,7.631738 0 0 1 3.80266,2.259154 l 12.33159,13.48569 a 7.631738,7.631738 0 0 1 1.91084,3.989061 l 0.13417,0.871651 a 7.631738,7.631738 0 0 0 1.91084,3.989061 l 12.75155,13.94495 1.06119,1.160508 v -22.618477 l -0.16006,-0.175042 -2.38855,-2.612089 a 7.631738,7.631738 0 0 0 -3.80265,-2.259154 l -0.8562,-0.211405 a 7.631738,7.631738 0 0 1 -3.80266,-2.259154 l -12.33159,-13.485691 a 7.631738,7.631738 0 0 1 -1.91084,-3.989061 l -0.13417,-0.871651 a 7.631738,7.631738 0 0 0 -1.91084,-3.989061 z" />
    <path
       id="path125"
       class="cruz"
       style="fill:lightgray;stroke:rgba(50, 50, 50, 1);stroke-width:4"
       d="m 371.07939,-315.66673 a 7.631738,7.631738 0 0 0 1.91084,-3.98906 l 0.13417,-0.87165 a 7.631738,7.631738 0 0 1 1.91084,-3.98906 l 12.33159,-13.48569 a 7.631738,7.631738 0 0 1 3.80266,-2.25915 l 0.8562,-0.21141 a 7.631738,7.631738 0 0 0 3.80265,-2.25915 l 2.38855,-2.61209 0.16006,-0.17504 v -22.61848 l -1.06119,1.16051 -12.75155,13.94495 a 7.631738,7.631738 0 0 0 -1.91084,3.98906 l -0.13417,0.87165 a 7.631738,7.631738 0 0 1 -1.91084,3.98906 l -12.33159,13.48569 a 7.631738,7.631738 0 0 1 -3.80266,2.25916 l -0.8562,0.2114 a 7.631738,7.631738 0 0 0 -3.80265,2.25915 l -25.72179,28.12906 a 7.631738,7.631738 0 0 0 -1.91084,3.98906 l -0.13417,0.87166 a 7.631738,7.631738 0 0 1 -1.91084,3.98906 l -12.33159,13.48569 a 7.631738,7.631738 0 0 1 -3.80265,2.25915 l -0.85621,0.21141 a 7.631738,7.631738 0 0 0 -3.80265,2.25915 l -2.38854,2.61209 -0.16002,0.17499 v 22.61848 l 1.06115,-1.16046 12.75154,-13.94495 a 7.631738,7.631738 0 0 0 1.91085,-3.98906 l 0.13416,-0.87165 a 7.631738,7.631738 0 0 1 1.91085,-3.98906 l 12.33159,-13.48569 a 7.631738,7.631738 0 0 1 3.80265,-2.25916 l 0.8562,-0.2114 a 7.631738,7.631738 0 0 0 3.80265,-2.25916 z" />
    <path
       id="path127"
       class="cruz"
       style="fill:lightgray;stroke:rgba(50, 50, 50, 1);stroke-width:4"
       d="m 352.58644,-318.06152 -0.20684,-0.2262 -7.022,-7.67918 a 7.631738,7.631738 0 0 0 -3.80265,-2.25916 l -0.8562,-0.2114 a 7.631738,7.631738 0 0 1 -3.80265,-2.25916 l -12.33159,-13.48569 a 7.631738,7.631738 0 0 1 -1.91085,-3.98906 l -0.13416,-0.87165 a 7.631738,7.631738 0 0 0 -1.91085,-3.98906 l -12.75154,-13.94495 -1.06114,-1.16045 v 22.61848 l 0.16001,0.17498 2.38854,2.61209 a 7.631738,7.631738 0 0 0 3.80265,2.25915 l 0.85621,0.21141 a 7.631738,7.631738 0 0 1 3.80265,2.25915 l 12.33159,13.48569 a 7.631738,7.631738 0 0 1 1.91084,3.98907 l 0.13417,0.87165 a 7.631738,7.631738 0 0 0 1.91084,3.98906 l 7.94473,8.68827 0.20684,0.2262 z" />
    <path
       id="path129"
       class="cruz"
       style="fill:lightgray;stroke:rgba(50, 50, 50, 1);stroke-width:4"
       d="m 371.07939,-297.83784 -7.94473,-8.68827 -0.20682,-0.22617 -10.3414,11.30923 7.22882,7.90536 a 7.631738,7.631738 0 0 0 3.80265,2.25915 l 0.8562,0.21141 a 7.631738,7.631738 0 0 1 3.80266,2.25915 l 12.33159,13.48569 a 7.631738,7.631738 0 0 1 1.91084,3.98906 l 0.13417,0.87165 a 7.631738,7.631738 0 0 0 1.91084,3.98906 l 12.75155,13.94495 1.06119,1.16051 v -22.61848 l -0.16006,-0.17504 -2.38855,-2.61209 a 7.631738,7.631738 0 0 0 -3.80265,-2.25915 l -0.8562,-0.21141 a 7.631738,7.631738 0 0 1 -3.80266,-2.25915 l -12.33159,-13.48569 a 7.631738,7.631738 0 0 1 -1.91084,-3.98906 l -0.13417,-0.87165 a 7.631738,7.631738 0 0 0 -1.91084,-3.98906 z" />
    <path
       id="path131"
       class="cruz"
       style="fill:lightgray;stroke:rgba(50, 50, 50, 1);stroke-width:4"
       d="m 371.07939,-514.09192 a 7.631738,7.631738 0 0 0 1.91084,-3.98906 l 0.13417,-0.87165 a 7.631738,7.631738 0 0 1 1.91084,-3.98907 l 12.33159,-13.48569 a 7.631738,7.631738 0 0 1 3.80266,-2.25915 l 0.8562,-0.21141 a 7.631738,7.631738 0 0 0 3.80265,-2.25915 l 2.38855,-2.61209 0.16006,-0.17504 v -22.61848 l -1.06119,1.16051 -12.75155,13.94495 a 7.631738,7.631738 0 0 0 -1.91084,3.98906 l -0.13417,0.87165 a 7.631738,7.631738 0 0 1 -1.91084,3.98906 l -12.33159,13.48569 a 7.631738,7.631738 0 0 1 -3.80266,2.25916 l -0.8562,0.2114 a 7.631738,7.631738 0 0 0 -3.80265,2.25916 l -25.72179,28.12906 a 7.631738,7.631738 0 0 0 -1.91084,3.98906 l -0.13417,0.87165 a 7.631738,7.631738 0 0 1 -1.91084,3.98906 l -12.33159,13.48569 a 7.631738,7.631738 0 0 1 -3.80265,2.25915 l -0.85621,0.21141 a 7.631738,7.631738 0 0 0 -3.80265,2.25915 l -2.38854,2.61209 -0.16002,0.175 v 22.61847 l 1.06115,-1.16046 12.75154,-13.94495 a 7.631738,7.631738 0 0 0 1.91085,-3.98906 l 0.13416,-0.87165 a 7.631738,7.631738 0 0 1 1.91085,-3.98906 l 12.33159,-13.48569 a 7.631738,7.631738 0 0 1 3.80265,-2.25915 l 0.8562,-0.21141 a 7.631738,7.631738 0 0 0 3.80265,-2.25915 z" />
    <path
       id="path133"
       class="cruz"
       style="fill:lightgray;stroke:rgba(50, 50, 50, 1);stroke-width:4"
       d="m 352.58644,-516.48672 -0.20684,-0.2262 -7.022,-7.67918 a 7.631738,7.631738 0 0 0 -3.80265,-2.25915 l -0.8562,-0.21141 a 7.631738,7.631738 0 0 1 -3.80265,-2.25915 l -12.33159,-13.48569 a 7.631738,7.631738 0 0 1 -1.91085,-3.98907 l -0.13416,-0.87165 a 7.631738,7.631738 0 0 0 -1.91085,-3.98906 l -12.75154,-13.94495 -1.06114,-1.16044 v 22.61847 l 0.16001,0.17498 2.38854,2.61209 a 7.631738,7.631738 0 0 0 3.80265,2.25916 l 0.85621,0.2114 a 7.631738,7.631738 0 0 1 3.80265,2.25916 l 12.33159,13.48569 a 7.631738,7.631738 0 0 1 1.91084,3.98906 l 0.13417,0.87165 a 7.631738,7.631738 0 0 0 1.91084,3.98906 l 7.94473,8.68827 0.20684,0.2262 z" />
    <path
       id="path135"
       class="cruz"
       style="fill:lightgray;stroke:rgba(50, 50, 50, 1);stroke-width:4"
       d="m 371.07939,-496.26304 -7.94473,-8.68827 -0.20682,-0.22617 -10.3414,11.30924 7.22882,7.90535 a 7.631738,7.631738 0 0 0 3.80265,2.25915 l 0.8562,0.21141 a 7.631738,7.631738 0 0 1 3.80266,2.25915 l 12.33159,13.48569 a 7.631738,7.631738 0 0 1 1.91084,3.98907 l 0.13417,0.87165 a 7.631738,7.631738 0 0 0 1.91084,3.98906 l 12.75155,13.94495 1.06119,1.1605 v -22.61847 l -0.16006,-0.17504 -2.38855,-2.61209 a 7.631738,7.631738 0 0 0 -3.80265,-2.25916 l -0.8562,-0.2114 a 7.631738,7.631738 0 0 1 -3.80266,-2.25916 l -12.33159,-13.48569 a 7.631738,7.631738 0 0 1 -1.91084,-3.98906 l -0.13417,-0.87165 a 7.631738,7.631738 0 0 0 -1.91084,-3.98906 z" />
    <path
       id="path137"
       class="cruz"
       style="fill:lightgray;stroke:rgba(50, 50, 50, 1);stroke-width:4"
       d="m 371.07939,-712.51712 a 7.631738,7.631738 0 0 0 1.91084,-3.98906 l 0.13417,-0.87165 a 7.631738,7.631738 0 0 1 1.91084,-3.98906 l 12.33159,-13.48569 a 7.631738,7.631738 0 0 1 3.80266,-2.25916 l 0.8562,-0.2114 a 7.631738,7.631738 0 0 0 3.80265,-2.25916 l 2.38855,-2.61208 0.16006,-0.17505 v -22.61847 l -1.06119,1.1605 -12.75155,13.94495 a 7.631738,7.631738 0 0 0 -1.91084,3.98906 l -0.13417,0.87165 a 7.631738,7.631738 0 0 1 -1.91084,3.98907 l -12.33159,13.48569 a 7.631738,7.631738 0 0 1 -3.80266,2.25915 l -0.8562,0.21141 a 7.631738,7.631738 0 0 0 -3.80265,2.25915 l -25.72179,28.12906 a 7.631738,7.631738 0 0 0 -1.91084,3.98906 l -0.13417,0.87165 a 7.631738,7.631738 0 0 1 -1.91084,3.98906 l -12.33159,13.48569 a 7.631738,7.631738 0 0 1 -3.80265,2.25916 l -0.85621,0.2114 a 7.631738,7.631738 0 0 0 -3.80265,2.25916 l -2.38854,2.61209 -0.16002,0.17499 v 22.61848 l 1.06115,-1.16046 12.75154,-13.94495 a 7.631738,7.631738 0 0 0 1.91085,-3.98906 l 0.13416,-0.87165 a 7.631738,7.631738 0 0 1 1.91085,-3.98907 l 12.33159,-13.48569 a 7.631738,7.631738 0 0 1 3.80265,-2.25915 l 0.8562,-0.21141 a 7.631738,7.631738 0 0 0 3.80265,-2.25915 z" />
    <path
       id="path139"
       class="cruz"
       style="fill:lightgray;stroke:rgba(50, 50, 50, 1);stroke-width:4"
       d="m 352.58644,-714.91192 -0.20684,-0.22619 -7.022,-7.67919 a 7.631738,7.631738 0 0 0 -3.80265,-2.25915 l -0.8562,-0.21141 a 7.631738,7.631738 0 0 1 -3.80265,-2.25915 l -12.33159,-13.48569 a 7.631738,7.631738 0 0 1 -1.91085,-3.98906 l -0.13416,-0.87165 a 7.631738,7.631738 0 0 0 -1.91085,-3.98906 l -12.75154,-13.94495 -1.06114,-1.16045 v 22.61847 l 0.16001,0.17499 2.38854,2.61209 a 7.631738,7.631738 0 0 0 3.80265,2.25915 l 0.85621,0.21141 a 7.631738,7.631738 0 0 1 3.80265,2.25915 l 12.33159,13.48569 a 7.631738,7.631738 0 0 1 1.91084,3.98906 l 0.13417,0.87165 a 7.631738,7.631738 0 0 0 1.91084,3.98906 l 7.94473,8.68827 0.20684,0.2262 z" />  
    <path
       id="path141"
       class="cruz"
       style="fill:lightgray;stroke:rgba(50, 50, 50, 1);stroke-width:4"
       d="m 371.07939,-694.68824 -7.94473,-8.68827 -0.20682,-0.22617 -10.3414,11.30924 7.22882,7.90535 a 7.631738,7.631738 0 0 0 3.80265,2.25916 l 0.8562,0.2114 a 7.631738,7.631738 0 0 1 3.80266,2.25916 l 12.33159,13.48569 a 7.631738,7.631738 0 0 1 1.91084,3.98906 l 0.13417,0.87165 a 7.631738,7.631738 0 0 0 1.91084,3.98906 l 12.75155,13.94495 1.06119,1.16051 v -22.61848 l -0.16006,-0.17504 -2.38855,-2.61209 a 7.631738,7.631738 0 0 0 -3.80265,-2.25915 l -0.8562,-0.21141 a 7.631738,7.631738 0 0 1 -3.80266,-2.25915 l -12.33159,-13.48569 a 7.631738,7.631738 0 0 1 -1.91084,-3.98907 l -0.13417,-0.87165 a 7.631738,7.631738 0 0 0 -1.91084,-3.98906 z" />
    








  </g>
  
  <g
     transform="translate(0.5,986.6035)"
     id="g153">
    <path
       id="path151"
       style="fill:lightgray;stroke:rgba(50, 50, 50, 1);stroke-width:4"
       d="m 446.38647,1022.8439 0.81508,-1909.73557" />
  </g>
  <desc
     id="desc155">columna4.dxf - scale = 0.080769, origin = (793.793411, 320.546881), method = auto</desc>
</svg>
