<?xml version="1.0" encoding="UTF-8" standalone="no"?>
<svg
   xmlns:dc="http://purl.org/dc/elements/1.1/"
   xmlns:cc="http://creativecommons.org/ns#"
   xmlns:rdf="http://www.w3.org/1999/02/22-rdf-syntax-ns#"
   xmlns:svg="http://www.w3.org/2000/svg"
   xmlns="http://www.w3.org/2000/svg"
   xmlns:sodipodi="http://sodipodi.sourceforge.net/DTD/sodipodi-0.dtd"
   xmlns:inkscape="http://www.inkscape.org/namespaces/inkscape"
   id="svg47"
   version="1.1"
   height="3217.3784"
   width="8247.9297"
   viewBox="0 0 8247.9295 3217.3785"
   sodipodi:docname="cuna-vAnterior.svg"
   inkscape:version="1.0.2-2 (e86c870879, 2021-01-15)"
>
  <metadata
     id="metadata998">
    <rdf:RDF>
      <cc:Work
         rdf:about="">
        <dc:format>image/svg+xml</dc:format>
        <dc:type
           rdf:resource="http://purl.org/dc/dcmitype/StillImage" />
        <dc:title />
      </cc:Work>
    </rdf:RDF>
  </metadata>
  <defs
     id="defs996" />
  <sodipodi:namedview
     pagecolor="#ffffff"
     bordercolor="#666666"
     borderopacity="1"
     objecttolerance="10"
     gridtolerance="10"
     guidetolerance="10"
     inkscape:pageopacity="0"
     inkscape:pageshadow="2"
     inkscape:window-width="1920"
     inkscape:window-height="1017"
     id="namedview994"
     showgrid="false"
     inkscape:zoom="0.11453718"
     inkscape:cx="4726.2632"
     inkscape:cy="2097.4496"
     inkscape:window-x="-8"
     inkscape:window-y="-8"
     inkscape:window-maximized="1"
     inkscape:current-layer="g43"
     inkscape:document-rotation="0" />
  <g
     transform="translate(-1676.161,3767.8477)"
     id="g43">
    <path
       id="path25"
       style="fill:#ffeeaa;stroke:#000000;stroke-width:5;fill-opacity:1"
       d="m 9145.0077,-3385.6142 h 778.5827 v 1992.9438 h -778.5827 z" />
    <path
       id="path27"
       style="fill:#ffeeaa;stroke:#000000;stroke-width:5;fill-opacity:1"
       d="m 6612.7241,-1680.4055 h 2532.2837 l -2e-4,1072.74359 H 6612.7238 Z" />
    <path
       id="path29"
       style="fill:#ffeeaa;stroke:#000000;stroke-width:5;fill-opacity:1"
       d="m 6612.724,-3385.6142 h -778.5827 v 1992.9438 h 778.5827 z" />
    <path
       id="path31"
       style="fill:#ffeeaa;stroke:#000000;stroke-width:5;fill-opacity:1"
       d="m 2999.4961,-3389.3953 -1247.2441,-2e-4 a 75.590551,75.590551 0 0 0 -75.5905,75.5905 l -5e-4,2116.5354 a 75.590551,75.590551 0 0 0 75.5905,75.5906 l 1247.2441,3e-4 z" />
    <path
       id="path37"
       style="fill:#ffeeaa;stroke:#000000;stroke-width:5;fill-opacity:1"
       d="m 5380.5985,-3389.3947 -24.8136,-82.7119 a 755.90551,755.90551 0 0 1 -31.7377,-202.5811 94.488189,94.488189 0 0 0 -94.4705,-92.6598 l -567.0884,-2e-4 a 94.488189,94.488189 0 0 0 -94.1795,86.8571 302.36221,302.36221 0 0 1 -87.5722,189.3828 l -13.1531,13.153 a 302.36221,302.36221 0 0 1 -213.8023,88.5598 l -1254.2851,-3e-4 -5e-4,2267.7166 1254.2851,2e-4 a 302.36221,302.36221 0 0 1 213.8023,88.5599 306.07056,306.07056 0 0 1 100.7508,202.84617 94.488189,94.488189 0 0 0 94.1539,86.54682 l 60.5764,10e-6 506.5119,1.2e-4 a 94.488189,94.488189 0 0 0 94.4705,-92.65982 755.90551,755.90551 0 0 1 56.5515,-272.5924 z" />
    <path
       id="path35"
       style="fill:lightgray;stroke:#000000;stroke-width:5"
       d="m 4473.5117,-2559.6735 a 151.1811,151.1811 0 0 0 -151.1811,-151.1811 l -680.3149,-2e-4 a 151.1811,151.1811 0 0 0 -151.1812,151.1811 l -10e-5,608.2736 a 151.1811,151.1811 0 0 0 151.1811,151.1812 l 680.3149,10e-5 a 151.1811,151.1811 0 0 0 151.1812,-151.1811 z" />
    <path
       id="path33"
       style="fill:rgb(50,50,50);stroke:#000000;stroke-width:5"
       d="m 4105.317,-2517.926 a 220.40537,220.40537 0 0 1 63.4052,87.4293 37.795276,37.795276 0 0 0 35.1002,23.7789 h 127.7256 a 37.795276,37.795276 0 0 0 36.5743,-47.3245 417.57909,417.57909 0 0 0 -143.1138,-220.6988 465.71494,465.71494 0 0 0 -46.1893,-29.5303 37.795276,37.795276 0 0 0 -18.449,-4.8087 H 3742.609 a 37.795276,37.795276 0 0 0 -18.4491,4.8086 465.71494,465.71494 0 0 0 -103.1657,78.3416 188.97638,188.97638 0 0 0 -29.0569,37.805 659.73924,659.73924 0 0 0 10.9291,683.7151 37.795276,37.795276 0 0 0 2.2786,3.2382 446.84188,446.84188 0 0 0 98.7059,92.5502 37.795276,37.795276 0 0 0 21.3792,6.6279 l 462.7629,10e-5 a 37.795276,37.795276 0 0 0 21.3793,-6.6279 446.84188,446.84188 0 0 0 17.8939,-12.9358 365.20118,365.20118 0 0 0 141.9944,-239.5868 37.795276,37.795276 0 0 0 -37.4051,-43.2117 h -122.5227 a 37.795276,37.795276 0 0 0 -36.8105,29.2239 169.09906,169.09906 0 0 1 -63.3302,97.0027 250.74282,250.74282 0 0 1 -330.6195,-22.4135 113.38583,113.38583 0 0 1 -17.6487,-23.0841 462.79338,462.79338 0 0 1 -22.2548,-419.6435 188.97638,188.97638 0 0 1 77.3551,-86.4086 268.54123,268.54123 0 0 1 289.2928,11.7527 z" />
    <path
       id="path39"
       style="fill:#ffeeaa;stroke:#000000;stroke-width:5;fill-opacity:1"
       d="m 5543.1182,-3351.5994 v -37.7953 h -162.5197 l -5e-4,1996.7242 162.5197,10e-5 z" />
    <path
       id="path41"
       style="fill:#ffeeaa;stroke:#000000;stroke-width:5;fill-opacity:1"
       d="m 5380.598,-1392.6705 1232.1259,10e-5 v 841.70112 l -1232.1259,-1.1e-4 z" />
  </g>
  <desc
     id="desc45">cuna.dxf - scale = 1.000000, origin = (0.000000, 0.000000), method = manual</desc>
</svg>
