<?xml version="1.0" encoding="utf-8"?>
<!-- Generator: Adobe Illustrator 16.0.3, SVG Export Plug-In . SVG Version: 6.00 Build 0)  -->
<!DOCTYPE svg PUBLIC "-//W3C//DTD SVG 1.1//EN" "http://www.w3.org/Graphics/SVG/1.1/DTD/svg11.dtd" [
	<!ENTITY ns_extend "http://ns.adobe.com/Extensibility/1.0/">
	<!ENTITY ns_ai "http://ns.adobe.com/AdobeIllustrator/10.0/">
	<!ENTITY ns_graphs "http://ns.adobe.com/Graphs/1.0/">
	<!ENTITY ns_vars "http://ns.adobe.com/Variables/1.0/">
	<!ENTITY ns_imrep "http://ns.adobe.com/ImageReplacement/1.0/">
	<!ENTITY ns_sfw "http://ns.adobe.com/SaveForWeb/1.0/">
	<!ENTITY ns_custom "http://ns.adobe.com/GenericCustomNamespace/1.0/">
	<!ENTITY ns_adobe_xpath "http://ns.adobe.com/XPath/1.0/">
]>
<svg version="1.1" id="Capa_1" xmlns:x="&ns_extend;" xmlns:i="&ns_ai;" xmlns:graph="&ns_graphs;"
	 xmlns="http://www.w3.org/2000/svg" xmlns:xlink="http://www.w3.org/1999/xlink" x="0px" y="0px" width="172.14px"
	 height="69.667px" viewBox="189.667 348.779 172.14 69.667" enable-background="new 189.667 348.779 172.14 69.667"
	 xml:space="preserve">
<metadata>
	<sfw  xmlns="&ns_sfw;">
		<slices></slices>
		<sliceSourceBounds  x="193.418" y="427.59" width="161.648" height="59.021" bottomLeftOrigin="true"></sliceSourceBounds>
	</sfw>
</metadata>
<g>
	<path fill="#E74A0F" d="M321.51,389.257l0.437-2.838c-2.038,1.31-2.983,1.456-4.293,1.456c-0.947,0-1.965-0.146-3.13-0.655
		c-1.092-0.364-1.965-0.728-2.693-0.946c-0.727-0.218-1.455-0.364-2.109-0.364c-0.873,0-1.674,0.219-2.548,0.655
		c-0.146,0.073-1.237,6.55-1.237,6.55c0.946-0.583,2.038-0.874,3.275-0.874c0.728,0,2.547,0.364,5.53,1.092
		c0.947,0.218,1.82,0.364,2.475,0.364c1.311,0,2.548-0.437,3.712-1.237L321.51,389.257z"/>
	<path fill="#004BA1" d="M193.571,370.917c-0.364-7.496,6.695-16.011,16.738-16.011c3.129,0,6.113,1.019,8.151,2.038l-1.165,7.642
		c-2.401-1.456-4.73-2.475-8.151-2.475c-4.658,0-7.787,3.784-7.641,7.568c0.146,2.838,2.329,4.585,5.313,4.585
		c0.655,0,1.601-0.073,2.329-0.218l1.019-5.895h7.205l-2.038,10.916c-3.93,2.038-6.841,2.402-9.825,2.402
		C199.102,381.47,193.935,376.958,193.571,370.917z"/>
	<path fill="#004BA1" d="M218.315,371.063c-0.364-7.496,6.623-16.156,16.593-16.156c6.768,0,11.571,4.367,11.862,10.334
		c0.364,7.568-6.623,16.229-16.593,16.229C223.409,381.47,218.678,377.104,218.315,371.063z M238.619,366.842
		c-0.146-2.62-1.747-4.512-4.658-4.512c-4.367,0-7.641,3.93-7.423,7.277c0.146,2.62,1.819,4.512,4.657,4.512
		C235.49,374.047,238.764,370.19,238.619,366.842z"/>
	<path fill="#004BA1" d="M250.336,355.562h9.388c6.623,0,11.426,3.129,11.79,9.242c0.364,7.642-4.803,15.938-15.938,15.938h-9.752
		L250.336,355.562z M256.449,373.465c5.021,0,7.059-3.202,6.841-6.914c-0.146-2.402-1.819-3.566-5.021-3.566h-1.237l-1.892,10.48
		H256.449z"/>
	<path fill="#004BA1" d="M271.804,371.063c-0.364-7.568,6.55-16.229,16.593-16.229c6.768,0,11.572,4.366,11.863,10.334
		c0.363,7.568-6.623,16.229-16.593,16.229C276.899,381.47,272.095,377.104,271.804,371.063z M292.109,366.842
		c-0.146-2.62-1.747-4.512-4.658-4.512c-4.366,0-7.641,3.93-7.423,7.277c0.146,2.62,1.819,4.512,4.658,4.512
		C288.98,374.047,292.254,370.19,292.109,366.842z"/>
	<path fill="#004BA1" d="M305.426,370.845l-6.186-15.283h8.442l2.692,8.078l5.313-8.078h9.46l-11.717,15.283l-1.819,9.97h-8.078
		L305.426,370.845z"/>
	<path fill="#004BA1" d="M222.317,387.947h10.188c4.949,0,8.078,2.547,8.296,6.622c0.291,5.458-3.93,11.062-11.353,11.062h-2.183
		l-1.383,7.569h-8.078L222.317,387.947z M230.177,398.791c2.329,0,2.766-1.747,2.693-2.475c-0.073-0.873-0.655-1.528-1.965-1.528
		h-1.747l-0.728,3.93h1.747V398.791z"/>
	<path fill="#004BA1" d="M240.074,403.521c-0.364-7.568,6.55-16.229,16.593-16.229c6.768,0,11.571,4.367,11.862,10.334
		c0.437,7.569-6.55,16.229-16.593,16.229C245.169,413.855,240.438,409.489,240.074,403.521z M260.379,399.227
		c-0.146-2.62-1.747-4.512-4.658-4.512c-4.366,0-7.641,3.93-7.423,7.277c0.146,2.62,1.819,4.512,4.658,4.512
		C257.249,406.505,260.524,402.575,260.379,399.227z"/>
	<path fill="#004BA1" d="M295.747,387.947L282.138,413.2h-8.878l-4.585-25.253h8.878l1.747,15.792h0.219l7.423-15.792H295.747z"/>
	<path fill="#004BA1" d="M296.621,387.947h8.078l-4.513,25.253h-8.078L296.621,387.947z"/>
	<path fill="#004BA1" d="M346.035,409.27h-7.496l-1.819,3.93h-8.66l13.463-25.253h9.243l4.439,25.253h-8.661L346.035,409.27z
		 M345.308,402.647l-0.655-6.113h-0.218l-2.839,6.113H345.308z"/>
	<g>
		<path fill="#004BA1" d="M323.475,387.947L321,401.702l-2.474-5.822c-0.582,0.219-1.238,0.292-1.893,0.292
			c-0.728,0-1.528-0.146-2.475-0.364c-2.983-0.728-4.803-1.091-5.53-1.091c-1.164,0-2.184,0.291-3.057,0.8l-3.13,17.612h8.079
			l2.183-12.736l6.112,12.736h8.225l4.512-25.253h-8.078V387.947z"/>
	</g>
</g>
</svg>
