<?xml version="1.0" encoding="utf-8"?>
<!-- Generator: Adobe Illustrator 22.1.0, SVG Export Plug-In . SVG Version: 6.00 Build 0)  -->
<svg version="1.1" id="Capa_1" xmlns="http://www.w3.org/2000/svg" xmlns:xlink="http://www.w3.org/1999/xlink" x="0px" y="0px"
	 viewBox="0 0 225 83" style="enable-background:new 0 0 225 83;" xml:space="preserve">
<style type="text/css">
	.st0{fill:#E74A0F;}
	.st1{fill:#FFFFFF;}
</style>
<g>
	<path class="st0" d="M177.3,48.2l0.6-3.9c-2.8,1.8-4.1,2-5.9,2c-1.3,0-2.7-0.2-4.3-0.9c-1.5-0.5-2.7-1-3.7-1.3
		c-1-0.3-2-0.5-2.9-0.5c-1.2,0-2.3,0.3-3.5,0.9c-0.2,0.1-1.7,9-1.7,9c1.3-0.8,2.8-1.2,4.5-1.2c1,0,3.5,0.5,7.6,1.5
		c1.3,0.3,2.5,0.5,3.4,0.5c1.8,0,3.5-0.6,5.1-1.7L177.3,48.2z"/>
	<path class="st1" d="M1.5,23C1,12.7,10.7,1,24.5,1c4.3,0,8.4,1.4,11.2,2.8l-1.6,10.5c-3.3-2-6.5-3.4-11.2-3.4
		c-6.4,0-10.7,5.2-10.5,10.4c0.2,3.9,3.2,6.3,7.3,6.3c0.9,0,2.2-0.1,3.2-0.3l1.4-8.1h9.9l-2.8,15c-5.4,2.8-9.4,3.3-13.5,3.3
		C9.1,37.5,2,31.3,1.5,23z"/>
	<path class="st1" d="M35.5,23.2C35,12.9,44.6,1,58.3,1c9.3,0,15.9,6,16.3,14.2c0.5,10.4-9.1,22.3-22.8,22.3
		C42.5,37.5,36,31.5,35.5,23.2z M63.4,17.4c-0.2-3.6-2.4-6.2-6.4-6.2c-6,0-10.5,5.4-10.2,10c0.2,3.6,2.5,6.2,6.4,6.2
		C59.1,27.3,63.6,22,63.4,17.4z"/>
	<path class="st1" d="M79.5,1.9h12.9c9.1,0,15.7,4.3,16.2,12.7c0.5,10.5-6.6,21.9-21.9,21.9H73.3L79.5,1.9z M87.9,26.5
		c6.9,0,9.7-4.4,9.4-9.5c-0.2-3.3-2.5-4.9-6.9-4.9h-1.7l-2.6,14.4H87.9z"/>
	<path class="st1" d="M109,23.2c-0.5-10.4,9-22.3,22.8-22.3c9.3,0,15.9,6,16.3,14.2c0.5,10.4-9.1,22.3-22.8,22.3
		C116,37.5,109.4,31.5,109,23.2z M136.9,17.4c-0.2-3.6-2.4-6.2-6.4-6.2c-6,0-10.5,5.4-10.2,10c0.2,3.6,2.5,6.2,6.4,6.2
		C132.6,27.3,137.1,22,136.9,17.4z"/>
	<path class="st1" d="M155.2,22.9l-8.5-21h11.6l3.7,11.1l7.3-11.1h13l-16.1,21l-2.5,13.7h-11.1L155.2,22.9z"/>
	<path class="st1" d="M41,46.4h14c6.8,0,11.1,3.5,11.4,9.1C66.8,63,61,70.7,50.8,70.7h-3l-1.9,10.4H34.8L41,46.4z M51.8,61.3
		c3.2,0,3.8-2.4,3.7-3.4c-0.1-1.2-0.9-2.1-2.7-2.1h-2.4l-1,5.4H51.8z"/>
	<path class="st1" d="M65.4,67.8c-0.5-10.4,9-22.3,22.8-22.3c9.3,0,15.9,6,16.3,14.2C105.1,70.1,95.5,82,81.7,82
		C72.4,82,65.9,76,65.4,67.8z M93.3,61.9c-0.2-3.6-2.4-6.2-6.4-6.2c-6,0-10.5,5.4-10.2,10c0.2,3.6,2.5,6.2,6.4,6.2
		C89,71.9,93.5,66.5,93.3,61.9z"/>
	<path class="st1" d="M141.9,46.4l-18.7,34.7H111l-6.3-34.7h12.2l2.4,21.7h0.3l10.2-21.7H141.9z"/>
	<path class="st1" d="M143.1,46.4h11.1L148,81.1h-11.1L143.1,46.4z"/>
	<path class="st1" d="M211,75.7h-10.3l-2.5,5.4h-11.9l18.5-34.7h12.7l6.1,34.7h-11.9L211,75.7z M210,66.6l-0.9-8.4h-0.3l-3.9,8.4
		H210z"/>
	<g>
		<path class="st1" d="M180,46.4l-3.4,18.9l-3.4-8c-0.8,0.3-1.7,0.4-2.6,0.4c-1,0-2.1-0.2-3.4-0.5c-4.1-1-6.6-1.5-7.6-1.5
			c-1.6,0-3,0.4-4.2,1.1l-4.3,24.2h11.1l3-17.5l8.4,17.5h11.3l6.2-34.7H180z"/>
	</g>
</g>
</svg>
