<?xml version="1.0" encoding="UTF-8" standalone="no"?>
<svg
   xmlns:dc="http://purl.org/dc/elements/1.1/"
   xmlns:cc="http://creativecommons.org/ns#"
   xmlns:rdf="http://www.w3.org/1999/02/22-rdf-syntax-ns#"
   xmlns:svg="http://www.w3.org/2000/svg"
   xmlns="http://www.w3.org/2000/svg"
   xmlns:sodipodi="http://sodipodi.sourceforge.net/DTD/sodipodi-0.dtd"
   xmlns:inkscape="http://www.inkscape.org/namespaces/inkscape"
   id="svg352"
   version="1.1"
   height="5031.5508"
   width="9928.7119"
   viewBox="0 0 9928.7118 5031.5509"
   sodipodi:docname="mini-vSuperior.svg"
   inkscape:version="1.0.2-2 (e86c870879, 2021-01-15)">
  <sodipodi:namedview
     pagecolor="#ffffff"
     bordercolor="#666666"
     borderopacity="1"
     objecttolerance="10"
     gridtolerance="10"
     guidetolerance="10"
     inkscape:pageopacity="0"
     inkscape:pageshadow="2"
     inkscape:window-width="1920"
     inkscape:window-height="1017"
     id="namedview1633"
     showgrid="false"
     inkscape:zoom="0.10243021"
     inkscape:cx="3758.1926"
     inkscape:cy="2125.2656"
     inkscape:window-x="-8"
     inkscape:window-y="-8"
     inkscape:window-maximized="1"
     inkscape:current-layer="g342" />
  <metadata
     id="metadata356">
    <rdf:RDF>
      <cc:Work
         rdf:about="">
        <dc:format>
               image/svg+xml
            </dc:format>
        <dc:type
           rdf:resource="http://purl.org/dc/dcmitype/StillImage" />
        <dc:title></dc:title>
      </cc:Work>
    </rdf:RDF>
  </metadata>
  <defs
     id="defs200">
    <symbol
       id="*Model_Space" />
    <symbol
       id="*Paper_Space" />
    <symbol
       id="*Paper_Space0" />
    <pattern
       y="0"
       x="0"
       height="8"
       width="8"
       patternUnits="userSpaceOnUse"
       id="Hatch">
      <path
         id="path190"
         linecap="square"
         stroke-width="0.25"
         stroke="#000000;stroke-width=5"
         d="M8 4 l-4,4" />
      <path
         id="path192"
         linecap="square"
         stroke-width="0.25"
         stroke="#000000;stroke-width=5"
         d="M6 2 l-4,4" />
      <path
         id="path194"
         linecap="square"
         stroke-width="0.25"
         stroke="#000000;stroke-width=5"
         d="M4 0 l-4,4" />
    </pattern>
    <marker
       style="overflow:visible"
       refY="0"
       refX="0"
       orient="auto"
       id="DistanceX">
      <path
         id="path187"
         style="stroke:#000;stroke-width:.5"
         d="M 3,-3 -3,3 M 0,-5 V 5" />
    </marker>
  </defs>
  <g
     transform="rotate(-90,12105.191,657.9329)"
     id="g342">
    <!-- CAJAS CARGA  -->
    <path
       id="path204"
       class="shuttle"
       style="fill:#ffeeaa;stroke:#000;fill-opacity:1"
       d="M 10074.344,-1783.6135 H 7922.9391 v -2439.4366 h 2151.4049 z" />
    <path
       id="path206"
       class="shuttle"
       style="fill:#ffeeaa;stroke:#000;fill-opacity:1"
       d="m 10455.024,-1783.6135 h 2307.6 v -2439.4366 h -2307.6 z" />
    <path
       id="portauniaa"
       class="shuttle"
       style="fill:#808080;stroke:#000;fill-opacity:1"
       d="m 10455.024,-1783.6135 h 2307.6 v 264.5671 h -2307.6 z" />
    <path
       id="portauniab"
       class="shuttle"
       style="fill:#808080;stroke:#000;fill-opacity:1"
       d="m 12762.624,-4487.6172 h -2003.378 a 188.97638,188.97638 0 0 1 -276.654,0 h -27.568 v 264.5671 h 2307.6 z" />
    <path
       id="portaunia2"
       class="shuttle"
       style="fill:#808080;stroke:#000;fill-opacity:1"
       d="m 10077.071,-4472.499 h -43.368 a 188.97638,188.97638 0 0 1 -245.0532,0 H 8430.3407 7732.073 v 249.4489 h 2344.998 z" />
    <path
       id="portaunia1"
       class="shuttle"
       style="fill:#808080;stroke:#000;fill-opacity:1"
       d="m 7732.073,-1783.6135 h 2342.271 v 264.5671 H 7732.073 Z" />
    <!--RUEDAS GUIA DE ARRIBA-->
    <path
       id="path216"
       class="ruedaUp"
       style="fill:#a9a9a9;stroke:#000"
       d="m 10809.895,-8033.0645 a 188.9765,188.9765 0 1 0 -377.953,0 188.9765,188.9765 0 1 0 377.953,0 z" />
    <path
       id="path218"
       class="ruedaUp"
       style="fill:#a9a9a9;stroke:#000"
       d="m 10809.895,-7262.0409 a 188.9765,188.9765 0 1 0 -377.953,0 188.9765,188.9765 0 1 0 377.953,0 z" />
    <path
       id="path220"
       class="ruedaUp"
       style="fill:#a9a9a9;stroke:#000"
       d="m 10100.153,-8033.0645 a 188.97655,188.97655 0 1 0 -377.9531,0 188.97655,188.97655 0 1 0 377.9531,0 z" />
    <path
       id="path222"
       class="ruedaUp"
       style="fill:#a9a9a9;stroke:#000"
       d="m 10100.153,-7262.0409 a 188.97655,188.97655 0 1 0 -377.9531,0 188.97655,188.97655 0 1 0 377.9531,0 z" />
    <path
       id="path234"
       class="ruedaUp"
       style="fill:#a9a9a9;stroke:#000"
       d="m 10809.895,-5387.3952 a 188.9765,188.9765 0 1 0 -377.953,0 188.9765,188.9765 0 1 0 377.953,0 z" />
    <path
       id="path236"
       class="ruedaUp"
       style="fill:#a9a9a9;stroke:#000"
       d="m 10809.895,-4616.3716 a 188.9765,188.9765 0 1 0 -377.953,0 188.9765,188.9765 0 1 0 377.953,0 z" />
    <path
       id="path228"
       class="ruedaUp"
       style="fill:#a9a9a9;stroke:#000"
       d="m 10100.153,-5387.3952 a 188.97655,188.97655 0 1 0 -377.9531,0 188.97655,188.97655 0 1 0 377.9531,0 z" />
    <path
       id="path230"
       class="ruedaUp"
       style="fill:#a9a9a9;stroke:#000"
       d="m 10100.153,-4616.3716 a 188.97655,188.97655 0 1 0 -377.9531,0 188.97655,188.97655 0 1 0 377.9531,0 z" />
    <!-- <path id="path230" class="ruedaUp" style="fill:#789;stroke:#000" d="m 10100.153,-4616.3716 a 188.97655,188.97655 0 1 0 -377.9531,0 188.97655,188.97655 0 1 0 377.9531,0 z"/> -->
    <path
       id="path224"
       class="ruedaUp"
       style="fill:#a9a9a9;stroke:#000"
       d="m 9880.7202,-7812.5683 5.8674,-14.0816 7.5853,-18.2047 a 188.97638,188.97638 0 0 1 -133.162,-73.4823 l -19.2861,46.2868 -75.3698,180.8875 a 113.38583,113.38583 0 0 0 0,87.2198 l 94.6559,227.1743 a 188.97638,188.97638 0 0 1 133.162,-73.4822 l -7.5853,-18.2048 -5.8674,-14.0816 a 113.38583,113.38583 0 0 1 2.7575,-93.3236 86.929134,86.929134 0 0 0 8.801,-38.1138 v -67.1564 a 86.929134,86.929134 0 0 0 -8.801,-38.1138 113.38583,113.38583 0 0 1 -2.7575,-93.3236 z" />
    <path
       id="path226"
       class="ruedaUp"
       style="fill:#a9a9a9;stroke:#000"
       d="m 10865.74,-7603.9428 a 113.38583,113.38583 0 0 0 0,-87.2198 l -75.37,-180.8875 -15.121,-36.29 h -12.359 a 188.97638,188.97638 0 0 1 -124.968,63.4855 l 7.586,18.2047 5.867,14.0816 a 113.38583,113.38583 0 0 1 -2.758,93.3236 86.929134,86.929134 0 0 0 -8.801,38.1138 v 67.1564 a 86.929134,86.929134 0 0 0 8.801,38.1138 113.38583,113.38583 0 0 1 2.758,93.3236 l -5.867,14.0816 -7.586,18.2048 a 188.97638,188.97638 0 0 1 133.162,73.4822 z" />
    <path
       id="path232"
       class="ruedaUp"
       style="fill:#a9a9a9;stroke:#000"
       d="m 9880.7202,-5166.899 5.8674,-14.0816 7.5853,-18.2047 a 188.97638,188.97638 0 0 1 -133.162,-73.4823 l -19.2861,46.2868 -75.3698,180.8875 a 113.38583,113.38583 0 0 0 0,87.2198 l 94.6559,227.1743 a 188.97638,188.97638 0 0 1 133.162,-73.4823 l -7.5853,-18.2047 -5.8674,-14.0816 a 113.38583,113.38583 0 0 1 2.7575,-93.3236 86.929134,86.929134 0 0 0 8.801,-38.1138 v -67.1564 a 86.929134,86.929134 0 0 0 -8.801,-38.1138 113.38583,113.38583 0 0 1 -2.7575,-93.3236 z" />
    <path
       id="path238"
       class="ruedaUp"
       style="fill:#a9a9a9;stroke:#000"
       d="m 10651.375,-5166.899 -5.867,-14.0816 -7.586,-18.2047 a 188.97638,188.97638 0 0 0 133.162,-73.4823 l 19.286,46.2868 75.37,180.8875 a 113.38583,113.38583 0 0 1 0,87.2198 l -94.656,227.1743 a 188.97638,188.97638 0 0 0 -133.162,-73.4823 l 7.586,-18.2047 5.867,-14.0816 a 113.38583,113.38583 0 0 0 -2.758,-93.3236 86.929134,86.929134 0 0 1 -8.801,-38.1138 v -67.1564 a 86.929134,86.929134 0 0 1 8.801,-38.1138 113.38583,113.38583 0 0 0 2.758,-93.3236 z" />
    <!-- <path id="path238" class="ruedaUp" style="fill:rgb(139,156,173);stroke:#000" d="m 10651.375,-5166.899 -5.867,-14.0816 -7.586,-18.2047 a 188.97638,188.97638 0 0 0 133.162,-73.4823 l 19.286,46.2868 75.37,180.8875 a 113.38583,113.38583 0 0 1 0,87.2198 l -94.656,227.1743 a 188.97638,188.97638 0 0 0 -133.162,-73.4823 l 7.586,-18.2047 5.867,-14.0816 a 113.38583,113.38583 0 0 0 -2.758,-93.3236 86.929134,86.929134 0 0 1 -8.801,-38.1138 v -67.1564 a 86.929134,86.929134 0 0 1 8.801,-38.1138 113.38583,113.38583 0 0 0 2.758,-93.3236 z"/> -->
    <!--ESTRUCTURA-->
    <path
       id="path240"
       class="estruct"
       style="fill:#ffeeaa;stroke:#000;fill-opacity:1"
       d="m 11213.018,-9131.0147 a 75.590551,75.590551 0 0 0 -75.591,-75.5905 l -682.403,-5e-4 v 614.1711 h 441.458 v 684.0945 h 170.079 v 24.5695 h 146.457 z" />
    <path
       id="path242"
       class="estruct"
       style="fill:#ffeeaa;stroke:#000;fill-opacity:1"
       d="m 10077.071,-9206.6057 -682.403,5e-4 a 75.590551,75.590551 0 0 0 -75.591,75.5905 v 1247.2441 h 316.535 v -708.664 h 441.459 z" />
    <path
       id="path248"
       class="estruct"
       style="fill:#ffeeaa;stroke:#000;fill-opacity:1"
       d="m 10077.071,-8592.4346 h -94.488 v 384.4039 a 188.97638,188.97638 0 0 1 94.488,84.4622 z" />
    <path
       id="path252"
       class="estruct"
       style="fill:#ffeeaa;stroke:#000;fill-opacity:1"
       d="m 10455.024,-8592.4346 h 94.488 v 384.4039 a 188.97638,188.97638 0 0 0 -94.488,84.4622 z" />
    <path
       id="path284"
       class="estruct"
       style="fill:#ffeeaa;stroke:#000;fill-opacity:1"
       d="m 10077.071,-7171.5369 a 188.97638,188.97638 0 0 1 -354.8711,-90.504 188.97638,188.97638 0 0 1 38.811,-114.7276 l -94.6559,-227.1743 a 113.38583,113.38583 0 0 1 0,-87.2198 l 75.3698,-180.8875 4.8835,-11.7205 H 8997.813 v 2345.4233 h 799.6728 a 188.97638,188.97638 0 0 1 227.3812,0 h 52.204 z" />
    <path
       id="path286"
       class="estruct"
       style="fill:#ffeeaa;stroke:#000;fill-opacity:1"
       d="m 10648.617,-5073.5754 a 113.38583,113.38583 0 0 0 2.758,-93.3236 l -13.453,-32.2863 a 188.97638,188.97638 0 0 1 -182.898,-97.7059 v 590.0156 a 188.97638,188.97638 0 0 1 182.898,-97.7059 l 13.453,-32.2863 a 113.38583,113.38583 0 0 0 -2.758,-93.3236 86.929134,86.929134 0 0 1 -8.801,-38.1138 v -67.1564 a 86.929134,86.929134 0 0 1 8.801,-38.1138 z" />
    <path
       id="path340"
       class="estruct"
       style="fill:#ffeeaa;stroke:#000;fill-opacity:1"
       d="m 11066.561,-7908.3401 h -291.312 l 15.121,36.29 75.37,180.8875 a 113.38583,113.38583 0 0 1 0,87.2198 l -94.656,227.1743 a 188.97638,188.97638 0 0 1 38.811,114.7276 188.97638,188.97638 0 0 1 -354.871,90.504 v 1693.6377 a 188.97638,188.97638 0 0 1 354.871,90.504 188.97638,188.97638 0 0 1 -38.811,114.7276 l 94.656,227.1743 a 113.38583,113.38583 0 0 1 0,87.2198 l -94.656,227.1743 a 188.97638,188.97638 0 0 1 38.811,114.7276 188.97638,188.97638 0 0 1 -50.649,128.7544 h 307.315 z" />
    <path
       id="path521"
       class="estruct"
       style="fill:#ffeeaa;stroke:#000;fill-opacity:1"
       d="m 9665.581,-5045.4069 75.3698,-180.887 19.2861,-46.287 a 188.97638,188.97638 0 0 1 -38.811,-114.728 188.97638,188.97638 0 0 1 75.2859,-150.952 H 8997.039 8429.5667 v 1065.848 h 1358.3091 a 188.97638,188.97638 0 0 1 -66.4499,-143.872 188.97638,188.97638 0 0 1 38.811,-114.728 l -94.6559,-227.174 a 113.38583,113.38583 0 0 1 0,-87.22 z" />
    <path
       id="path852"
       class="estruct"
       style="fill:#ffeeaa;stroke:#000;fill-opacity:1"
       d="m 10639.816,-7681.1306 a 86.929134,86.929134 0 0 1 8.801,-38.114 113.38583,113.38583 0 0 0 2.758,-93.323 l -5.867,-14.082 -7.586,-18.205 a 188.97638,188.97638 0 0 1 -182.898,-97.706 v 590.016 a 188.97638,188.97638 0 0 1 182.898,-97.706 l 7.586,-18.205 5.867,-14.081 a 113.38583,113.38583 0 0 0 -2.758,-93.324 86.929134,86.929134 0 0 1 -8.801,-38.114 z" />
    <path
       id="path1213"
       class="estruct"
       style="fill:#ffeeaa;stroke:#000;fill-opacity:1"
       d="m 10077.071,-5296.8915 a 188.97638,188.97638 0 0 1 -182.8981,97.706 l -7.5853,18.205 -5.8674,14.082 a 113.38583,113.38583 0 0 0 2.7575,93.323 86.929134,86.929134 0 0 1 8.801,38.114 v 67.156 a 86.929134,86.929134 0 0 1 -8.801,38.114 113.38583,113.38583 0 0 0 -2.7575,93.324 l 5.8674,14.081 7.5853,18.205 a 188.97638,188.97638 0 0 1 182.8981,97.706 z" />
    <path
       id="path1213-9"
       class="estruct"
       style="fill:#ffeeaa;stroke:#000;fill-opacity:1"
       d="m 10077.071,-7942.5606 a 188.97638,188.97638 0 0 1 -182.8981,97.706 l -7.585,18.205 -5.867,14.082 a 113.38583,113.38583 0 0 0 2.757,93.323 86.929134,86.929134 0 0 1 8.801,38.114 v 67.156 a 86.929134,86.929134 0 0 1 -8.801,38.114 113.38583,113.38583 0 0 0 -2.757,93.324 l 5.867,14.081 7.585,18.205 a 188.97638,188.97638 0 0 1 182.8981,97.706 z" />
    <!--TRANSMISION-->
    <path
       id="path212"
       class="transmision"
       style="fill:#a9a9a9;stroke:#000"
       d="m 10077.071,-11071.804 h -280.2874 v -374.954 h 280.2874 z" />
    <path
       id="path214"
       class="transmision"
       style="fill:#a9a9a9;stroke:#000"
       d="m 10455.024,-11446.758 h 286.641 v 374.954 h -286.641 z" />
    <path
       id="path262"
       class="transmision"
       style="fill:gray;stroke:#000"
       d="m 9657.2699,-11071.804 h 60 v 1865.1983 h -60 z" />
    <path
       id="path264"
       class="transmision"
       style="fill:gray;stroke:#000"
       d="m 9717.2699,-11071.804 h 359.8011 v 72 h -359.8011 z" />
    <path
       id="path272"
       class="transmision"
       style="fill:gray;stroke:#000"
       d="m 10874.825,-11071.804 h -60 v 1865.1983 h 60 z" />
    <path
       id="path274"
       class="transmision"
       style="fill:gray;stroke:#000"
       d="m 10814.825,-11071.804 h -359.801 v 72 h 359.801 z" />
    <path
       id="pata2"
       class="transmision"
       style="fill:gray;stroke:#000"
       d="m 9717.2699,-10886.608 h 359.8011 v 188.977 h -359.8011 z" />
    <path
       id="pata1"
       class="transmision"
       style="fill:gray;stroke:#000"
       d="m 10814.825,-10697.631 h -359.801 v -188.977 h 359.801 z" />
    <path
       id="tuerca2"
       class="eje"
       style="fill:gray;stroke:#000"
       d="m 10729.786,-9925.5656 v -1.042 -6.4252 h 10.583 v -8.6929 h 13.228 v 120.9449 h -13.228 v -8.693 h -10.583 v -6.4252 -1.042 -43.2702 -1.0421 -1.042 z" />
    <path
       id="tuerca1"
       class="eje"
       style="fill:gray;stroke:#000"
       d="m 10729.786,-10416.904 v -1.042 -6.425 h 10.583 v -8.693 h 13.228 v 120.945 h -13.228 v -8.693 h -10.583 v -6.426 -1.042 -43.27 -1.042 -1.042 z" />
    <path
       id="path270"
       class="eje"
       style="fill:#a0a0a0;stroke:#000"
       d="m 10753.597,-10433.064 h 61.228 v 612.2832 h -61.228 z" />
    <path
       id="tuerca4"
       class="eje"
       style="fill:gray;stroke:#000"
       d="m 9802.309,-9925.5656 v -1.042 -6.4252 h -10.5827 v -8.6929 h -13.2283 v 120.9449 h 13.2283 v -8.693 h 10.5827 v -6.4252 -1.042 -43.2702 -1.0421 -1.042 z" />
    <path
       id="tuerca3"
       class="eje"
       style="fill:gray;stroke:#000"
       d="m 9802.309,-10416.904 v -1.042 -6.425 h -10.5827 v -8.693 h -13.2283 v 120.945 h 13.2283 v -8.693 h 10.5827 v -6.426 -1.042 -43.27 -1.042 -1.042 z" />
    <path
       id="path260"
       class="eje"
       style="fill:#a0a0a0;stroke:#000"
       d="M 9778.4983,-10433.064 H 9717.27 v 612.2832 h 61.2283 z" />
    <path
       id="path336"
       class="eje"
       style="fill:#6c6c6c;stroke:#000"
       d="m 9778.498,-10312.119 h 13.2283 v -8.693 h 10.5827 v -6.426 -44.312 -4.287 l 90.7065,18.477 a 5.669291,5.669291 0 0 1 4.5376,5.556 v 94.374 h 65.7638 v 15.268 h 113.7541 v 228.625 h -113.7541 v 17.1215 h -65.7638 v 94.3748 a 5.669291,5.669291 0 0 1 -4.8616,5.6115 l -90.3825,15.6969 v -1.563 -43.2703 -7.4672 h -10.5827 v -8.6929 h -13.2283 z" />
    <path
       id="path338"
       class="eje"
       style="fill:#6c6c6c;stroke:#000"
       d="m 10753.597,-10312.119 h -13.228 v -8.693 h -10.583 v -6.426 -44.312 -4.287 l -90.707,18.477 a 5.669291,5.669291 0 0 0 -4.537,5.556 v 94.374 h -65.764 v 15.268 h -113.754 v 228.625 h 113.754 v 17.1215 h 65.764 v 94.3748 a 5.669291,5.669291 0 0 0 4.861,5.6115 l 90.383,15.6969 v -1.563 -43.2703 -7.4672 h 10.583 v -8.6929 h 13.228 z" />
    <!--VACIO-->
    <path
       id="path276"
       class="vano"
       style="fill:none;stroke:#000"
       d="m 9717.2699,-9206.6057 h 359.8011 v -1793.1983 h -359.8011 z" />
    <path
       id="path278"
       class="vano"
       style="fill:none;stroke:#000"
       d="m 10455.024,-10999.804 h 359.801 v 1793.1983 h -359.801 z" />
    <!--CUERPO-->
    <path
       id="acople"
       class="motor"
       style="fill:#cd140a;stroke:#000"
       d="m 11039.632,-9427.71 h 755.906 v 111.4961 h -755.906 z" />
    <path
       id="path308"
       class="motor"
       style="fill:#cd140a;stroke:#000"
       d="m 11691.601,-9316.2139 h -548.032 v 70.4882 h 19.654 40.819 427.086 60.473 z" />
    <path
       id="jaulamotor"
       class="motor"
       style="fill:#e13228;stroke:#000"
       d="m 11725.616,-9143.6785 v -102.0472 h -521.574 -40.819 -19.654 -32.126 v 39.1204 l 25.984,10e-5 a 75.590551,75.590551 0 0 1 66.615,39.8626 75.590551,75.590551 0 0 1 8.976,35.7279 v 1112.1236 70.2992 h 42.047 v 39.6851 h 325.039 v -39.6851 h 51.024 v -70.2992 h 94.488 v -306.1417 h 11.465 a 68.031496,68.031496 0 1 0 0,-75.5906 h -11.465 z" />
    <path
       id="transmision"
       class="motor"
       style="fill:#e13228;stroke:#000"
       d="m 11799.317,-10448.182 h -90.709 v -37.521 h -54.803 v -106.376 h -472.441 v 106.376 h -54.803 v 37.521 h -109.606 l -75.591,-107.955 h -66.539 v 858.4288 h 66.539 l 75.591,-107.9545 h 109.606 v 377.9527 h 582.047 v -377.9527 h 90.709 z" />
  </g>
  <g
     transform="translate(-5282.9927,8998.6777)"
     id="g348" />
  <desc
     id="desc350">
      carro-vista-superiorsimpler.dxf - scale = 1.000000;stroke-width=5, origin = (0.000000;stroke-width=5, 0.000000;stroke-width=5), method = manual
   </desc>
</svg>
